<svg width="52" height="57" viewBox="0 0 52 57" fill="none" xmlns="http://www.w3.org/2000/svg">
<g filter="url(#filter0_i_1_3)">
<path d="M10.9239 46.2655C16.9485 46.2655 21.8478 41.2573 21.8478 35.0989V6.77741L46.4266 15.9117V36.6538C44.774 35.6473 42.8883 35.1105 40.9647 35.0989C34.9401 35.0989 30.0408 40.1071 30.0408 46.2655C30.0408 52.424 34.9401 57.4322 40.9647 57.4322C46.9892 57.4322 51.8886 52.424 51.8886 46.2655V13.9576C51.889 13.3848 51.7167 12.8258 51.3951 12.3568C51.0736 11.8877 50.6184 11.5313 50.0916 11.3362L20.0508 0.169537C19.6384 0.0154283 19.1958 -0.0346546 18.7604 0.0235426C18.325 0.0817398 17.9098 0.246498 17.55 0.50382C17.1902 0.761143 16.8966 1.10343 16.6939 1.5016C16.4912 1.89977 16.3855 2.34207 16.3859 2.79091V25.4872C14.7333 24.4806 12.8476 23.9438 10.9239 23.9322C4.89937 23.9322 0 28.9405 0 35.0989C0 41.2573 4.89937 46.2655 10.9239 46.2655Z" fill="url(#paint0_linear_1_3)"/>
</g>
<defs>
<filter id="filter0_i_1_3" x="0" y="0" width="51.8886" height="59.4322" filterUnits="userSpaceOnUse" color-interpolation-filters="sRGB">
<feFlood flood-opacity="0" result="BackgroundImageFix"/>
<feBlend mode="normal" in="SourceGraphic" in2="BackgroundImageFix" result="shape"/>
<feColorMatrix in="SourceAlpha" type="matrix" values="0 0 0 0 0 0 0 0 0 0 0 0 0 0 0 0 0 0 127 0" result="hardAlpha"/>
<feOffset dy="2"/>
<feGaussianBlur stdDeviation="1.5"/>
<feComposite in2="hardAlpha" operator="arithmetic" k2="-1" k3="1"/>
<feColorMatrix type="matrix" values="0 0 0 0 0.80625 0 0 0 0 0.80625 0 0 0 0 0.80625 0 0 0 0.52 0"/>
<feBlend mode="normal" in2="shape" result="effect1_innerShadow_1_3"/>
</filter>
<linearGradient id="paint0_linear_1_3" x1="0.407613" y1="39.4159" x2="52.7743" y2="11.3853" gradientUnits="userSpaceOnUse">
<stop stop-color="#DACEFF"/>
<stop offset="1" stop-color="#6945FF"/>
</linearGradient>
</defs>
</svg>
