<svg width="360" height="57" viewBox="0 0 360 57" fill="none" xmlns="http://www.w3.org/2000/svg">
<g clip-path="url(#clip0_1_5)">
<g filter="url(#filter0_i_1_5)">
<path d="M10.9239 46.2655C16.9485 46.2655 21.8478 41.2573 21.8478 35.0989V6.77741L46.4266 15.9117V36.6538C44.774 35.6473 42.8883 35.1105 40.9647 35.0989C34.9401 35.0989 30.0408 40.1071 30.0408 46.2655C30.0408 52.424 34.9401 57.4322 40.9647 57.4322C46.9892 57.4322 51.8886 52.424 51.8886 46.2655V13.9576C51.889 13.3848 51.7167 12.8258 51.3951 12.3568C51.0736 11.8877 50.6184 11.5313 50.0916 11.3362L20.0508 0.169537C19.6384 0.0154283 19.1958 -0.0346546 18.7604 0.0235426C18.325 0.0817398 17.9098 0.246498 17.55 0.50382C17.1902 0.761143 16.8966 1.10343 16.6939 1.5016C16.4912 1.89977 16.3855 2.34207 16.3859 2.79091V25.4872C14.7333 24.4806 12.8476 23.9438 10.9239 23.9322C4.89937 23.9322 0 28.9405 0 35.0989C0 41.2573 4.89937 46.2655 10.9239 46.2655Z" fill="url(#paint0_linear_1_5)"/>
</g>
<g filter="url(#filter1_i_1_5)">
<path d="M69.68 47V9.04H79.768L89.284 31.712H90.22L99.684 9.04H109.928V47H102.596V14.604L103.532 14.708L93.288 39.252H85.748L75.452 14.708L76.44 14.604V47H69.68ZM134.945 47.988C131.409 47.988 128.428 47.312 126.001 45.96C123.575 44.608 121.72 42.7187 120.437 40.292C119.189 37.8307 118.565 34.9533 118.565 31.66V9.04H125.949V32.076C125.949 33.8787 126.296 35.4733 126.989 36.86C127.683 38.212 128.688 39.2693 130.005 40.032C131.357 40.76 133.004 41.124 134.945 41.124C136.852 41.124 138.464 40.76 139.781 40.032C141.133 39.2693 142.139 38.212 142.797 36.86C143.491 35.508 143.837 33.9133 143.837 32.076V9.04H151.221V31.66C151.221 34.9533 150.597 37.8307 149.349 40.292C148.136 42.7187 146.316 44.608 143.889 45.96C141.463 47.312 138.481 47.988 134.945 47.988ZM172.816 47.988C169.453 47.988 166.61 47.4507 164.288 46.376C162 45.3013 160.249 43.828 159.036 41.956C157.822 40.0493 157.216 37.9 157.216 35.508H164.444C164.444 36.5133 164.721 37.5013 165.276 38.472C165.83 39.408 166.714 40.1707 167.928 40.76C169.176 41.3493 170.805 41.644 172.816 41.644C174.618 41.644 176.126 41.384 177.34 40.864C178.553 40.344 179.454 39.668 180.044 38.836C180.633 37.9693 180.928 36.9987 180.928 35.924C180.928 34.572 180.356 33.4973 179.212 32.7C178.068 31.868 176.3 31.348 173.908 31.14L170.58 30.88C166.94 30.568 164.028 29.4413 161.844 27.5C159.694 25.524 158.619 22.924 158.619 19.7C158.619 17.2733 159.192 15.1933 160.336 13.46C161.48 11.692 163.074 10.34 165.12 9.404C167.2 8.43333 169.626 7.948 172.4 7.948C175.277 7.948 177.756 8.45066 179.836 9.456C181.916 10.4613 183.528 11.8827 184.672 13.72C185.816 15.5227 186.388 17.6547 186.388 20.116H179.16C179.16 19.076 178.9 18.1227 178.38 17.256C177.894 16.3547 177.149 15.644 176.144 15.124C175.173 14.5693 173.925 14.292 172.4 14.292C170.944 14.292 169.73 14.5347 168.76 15.02C167.789 15.5053 167.061 16.164 166.576 16.996C166.09 17.828 165.848 18.7293 165.848 19.7C165.848 20.8787 166.281 21.9187 167.148 22.82C168.014 23.6867 169.384 24.1893 171.256 24.328L174.584 24.64C177.288 24.848 179.662 25.42 181.708 26.356C183.753 27.292 185.33 28.5573 186.44 30.152C187.584 31.7467 188.156 33.6707 188.156 35.924C188.156 38.316 187.532 40.4307 186.284 42.268C185.036 44.0707 183.25 45.4747 180.928 46.48C178.64 47.4853 175.936 47.988 172.816 47.988ZM195.011 47V9.04H202.395V47H195.011ZM228.976 47.988C225.544 47.988 222.597 47.3813 220.136 46.168C217.674 44.9547 215.664 43.3773 214.104 41.436C212.578 39.4947 211.452 37.38 210.724 35.092C209.996 32.804 209.632 30.6027 209.632 28.488V27.344C209.632 24.9867 209.996 22.664 210.724 20.376C211.486 18.088 212.648 16.008 214.208 14.136C215.768 12.264 217.744 10.7733 220.136 9.664C222.562 8.52 225.422 7.948 228.716 7.948C232.148 7.948 235.129 8.572 237.66 9.82C240.225 11.0333 242.27 12.7667 243.796 15.02C245.321 17.2387 246.24 19.8387 246.552 22.82H239.116C238.838 21.0867 238.214 19.6307 237.244 18.452C236.308 17.2387 235.112 16.3373 233.656 15.748C232.2 15.124 230.553 14.812 228.716 14.812C226.844 14.812 225.18 15.1413 223.724 15.8C222.268 16.424 221.054 17.3253 220.084 18.504C219.113 19.6827 218.368 21.0693 217.848 22.664C217.362 24.2587 217.12 26.0267 217.12 27.968C217.12 29.84 217.362 31.5733 217.848 33.168C218.368 34.7627 219.13 36.1667 220.136 37.38C221.141 38.5587 222.372 39.4773 223.828 40.136C225.318 40.7947 227.034 41.124 228.976 41.124C231.818 41.124 234.21 40.4307 236.152 39.044C238.128 37.6227 239.324 35.6467 239.74 33.116H247.176C246.829 35.82 245.91 38.2987 244.42 40.552C242.929 42.8053 240.884 44.608 238.284 45.96C235.684 47.312 232.581 47.988 228.976 47.988ZM259.595 47.26V41.332H269.111C270.844 41.332 272.161 40.864 273.063 39.928C273.964 38.9573 274.415 37.64 274.415 35.976C274.415 34.312 273.964 33.0293 273.063 32.128C272.161 31.192 270.844 30.724 269.111 30.724H259.595V26.2H268.591C271.121 26.2 273.375 26.512 275.351 27.136C277.361 27.7253 278.921 28.7307 280.031 30.152C281.175 31.5733 281.747 33.48 281.747 35.872V36.6C281.747 38.8533 281.244 40.7773 280.239 42.372C279.268 43.932 277.795 45.1453 275.819 46.012C273.877 46.844 271.468 47.26 268.591 47.26H259.595ZM253.407 47.26V8.78H260.635V47.26H253.407ZM259.595 29.528V25.004H267.707C269.475 25.004 270.775 24.536 271.607 23.6C272.439 22.664 272.855 21.416 272.855 19.856C272.855 18.296 272.439 17.048 271.607 16.112C270.775 15.176 269.475 14.708 267.707 14.708H259.595V8.78H267.031C271.329 8.78 274.588 9.68133 276.807 11.484C279.06 13.2867 280.187 15.8693 280.187 19.232V19.96C280.187 22.3173 279.615 24.2067 278.471 25.628C277.361 27.0147 275.819 28.02 273.843 28.644C271.867 29.2333 269.596 29.528 267.031 29.528H259.595ZM306.84 47.988C303.408 47.988 300.427 47.3813 297.896 46.168C295.4 44.9547 293.32 43.3773 291.656 41.436C290.027 39.46 288.796 37.3453 287.964 35.092C287.167 32.804 286.768 30.6027 286.768 28.488V27.344C286.768 25.0213 287.184 22.716 288.016 20.428C288.848 18.1053 290.096 16.008 291.76 14.136C293.459 12.264 295.556 10.7733 298.052 9.664C300.548 8.52 303.478 7.948 306.84 7.948C310.168 7.948 313.08 8.52 315.576 9.664C318.072 10.7733 320.152 12.264 321.816 14.136C323.515 16.008 324.78 18.1053 325.612 20.428C326.444 22.716 326.86 25.0213 326.86 27.344V28.488C326.86 30.6027 326.444 32.804 325.612 35.092C324.815 37.3453 323.584 39.46 321.92 41.436C320.291 43.3773 318.211 44.9547 315.68 46.168C313.184 47.3813 310.238 47.988 306.84 47.988ZM306.84 41.124C308.782 41.124 310.515 40.7773 312.04 40.084C313.6 39.3907 314.918 38.4373 315.992 37.224C317.102 35.976 317.934 34.572 318.488 33.012C319.078 31.4173 319.372 29.736 319.372 27.968C319.372 26.0613 319.078 24.3107 318.488 22.716C317.934 21.1213 317.102 19.7347 315.992 18.556C314.918 17.3773 313.6 16.4587 312.04 15.8C310.48 15.1413 308.747 14.812 306.84 14.812C304.899 14.812 303.148 15.1413 301.588 15.8C300.028 16.4587 298.694 17.3773 297.584 18.556C296.51 19.7347 295.678 21.1213 295.088 22.716C294.534 24.3107 294.256 26.0613 294.256 27.968C294.256 29.736 294.534 31.4173 295.088 33.012C295.678 34.572 296.51 35.976 297.584 37.224C298.694 38.4373 300.028 39.3907 301.588 40.084C303.148 40.7773 304.899 41.124 306.84 41.124ZM340.367 47V14.5H347.751V47H340.367ZM329.395 15.54V9.04H358.723V15.54H329.395Z" fill="white"/>
</g>
</g>
<defs>
<filter id="filter0_i_1_5" x="0" y="0" width="51.8886" height="59.4322" filterUnits="userSpaceOnUse" color-interpolation-filters="sRGB">
<feFlood flood-opacity="0" result="BackgroundImageFix"/>
<feBlend mode="normal" in="SourceGraphic" in2="BackgroundImageFix" result="shape"/>
<feColorMatrix in="SourceAlpha" type="matrix" values="0 0 0 0 0 0 0 0 0 0 0 0 0 0 0 0 0 0 127 0" result="hardAlpha"/>
<feOffset dy="2"/>
<feGaussianBlur stdDeviation="1.5"/>
<feComposite in2="hardAlpha" operator="arithmetic" k2="-1" k3="1"/>
<feColorMatrix type="matrix" values="0 0 0 0 0.80625 0 0 0 0 0.80625 0 0 0 0 0.80625 0 0 0 0.52 0"/>
<feBlend mode="normal" in2="shape" result="effect1_innerShadow_1_5"/>
</filter>
<filter id="filter1_i_1_5" x="69.68" y="7.948" width="289.043" height="42.04" filterUnits="userSpaceOnUse" color-interpolation-filters="sRGB">
<feFlood flood-opacity="0" result="BackgroundImageFix"/>
<feBlend mode="normal" in="SourceGraphic" in2="BackgroundImageFix" result="shape"/>
<feColorMatrix in="SourceAlpha" type="matrix" values="0 0 0 0 0 0 0 0 0 0 0 0 0 0 0 0 0 0 127 0" result="hardAlpha"/>
<feOffset dy="2"/>
<feGaussianBlur stdDeviation="1.5"/>
<feComposite in2="hardAlpha" operator="arithmetic" k2="-1" k3="1"/>
<feColorMatrix type="matrix" values="0 0 0 0 0 0 0 0 0 0 0 0 0 0 0 0 0 0 0.52 0"/>
<feBlend mode="normal" in2="shape" result="effect1_innerShadow_1_5"/>
</filter>
<linearGradient id="paint0_linear_1_5" x1="0.407613" y1="39.4159" x2="52.7743" y2="11.3853" gradientUnits="userSpaceOnUse">
<stop stop-color="#DACEFF"/>
<stop offset="1" stop-color="#6945FF"/>
</linearGradient>
<clipPath id="clip0_1_5">
<rect width="360" height="57" fill="white"/>
</clipPath>
</defs>
</svg>
